/* XPM */
static const char *file32_xpm[] = {
/* width height num_colors chars_per_pixel */
"    32    32      256            2",
/* colors */
"`` c none",
"`. c #959595",
"`# c #999999",
"`a c #9c9c9c",
"`b c #9e9e9e",
"`c c #969696",
"`d c #939393",
"`e c #8f8f8f",
"`f c #8c8c8c",
"`g c #888888",
"`h c #848484",
"`i c #818181",
"`j c #7d7d7d",
"`k c #7a7a7a",
"`l c #767676",
"`m c #727272",
"`n c #6f6f6f",
"`o c #6b6b6b",
"`p c #686868",
"`q c #646464",
"`r c #606060",
"`s c #fdfdfd",
"`t c #fefefe",
"`u c #fafafa",
"`v c #fcfcfc",
"`w c #fbfbfb",
"`x c #f9f9f9",
"`y c #f8f8f8",
"`z c #636363",
"`A c #dcdcdc",
"`B c #dddddd",
"`C c #dadada",
"`D c #e5e5e5",
"`E c #dfdfdf",
"`F c #e0e0e0",
"`G c #e1e1e1",
"`H c #e2e2e2",
"`I c #e3e3e3",
"`J c #5d5d5d",
"`K c #929292",
"`L c #dedede",
"`M c #e6e6e6",
"`N c #e4e4e4",
"`O c #909090",
"`P c #dbdbdb",
"`Q c #bdbdbd",
"`R c #bbbbbb",
"`S c #bcbcbc",
"`T c #bfbfbf",
"`U c #5c5c5c",
"`V c #8e8e8e",
"`W c #e7e7e7",
"`X c #8b8b8b",
"`Y c #e8e8e8",
"`Z c #bebebe",
"`0 c #c0c0c0",
"`1 c #5b5b5b",
"`2 c #898989",
"`3 c #5a5a5a",
"`4 c #868686",
"`5 c #e9e9e9",
"`6 c #c1c1c1",
"`7 c #595959",
"`8 c #838383",
".` c #b0b0b0",
".. c #eaeaea",
".# c #585858",
".a c #808080",
".b c #c2c2c2",
".c c #ebebeb",
".d c #575757",
".e c #ececec",
".f c #555555",
".g c #c3c3c3",
".h c #ededed",
".i c #545454",
".j c #777777",
".k c #eeeeee",
".l c #525252",
".m c #737373",
".n c #c4c4c4",
".o c #efefef",
".p c #505050",
".q c #707070",
".r c #f0f0f0",
".s c #f7f7f7",
".t c #4e4e4e",
".u c #6d6d6d",
".v c #f1f1f1",
".w c #4c4c4c",
".x c #6a6a6a",
".y c #c6c6c6",
".z c #f2f2f2",
".A c #4b4b4b",
".B c #666666",
".C c #b1b1b1",
".D c #f3f3f3",
".E c #f4f4f4",
".F c #c7c7c7",
".G c #f5f5f5",
".H c #f6f6f6",
".I c #c8c8c8",
".J c #565656",
".K c #535353",
".L c #4f4f4f",
".M c #515151",
".N c #373737",
".O c #333333",
".P c #000000",
".Q c #000000",
".R c #000000",
".S c #000000",
".T c #000000",
".U c #000000",
".V c #000000",
".W c #000000",
".X c #000000",
".Y c #000000",
".Z c #000000",
".0 c #000000",
".1 c #000000",
".2 c #000000",
".3 c #000000",
".4 c #000000",
".5 c #000000",
".6 c #000000",
".7 c #000000",
".8 c #000000",
"#` c #000000",
"#. c #000000",
"## c #000000",
"#a c #000000",
"#b c #000000",
"#c c #000000",
"#d c #000000",
"#e c #000000",
"#f c #000000",
"#g c #000000",
"#h c #000000",
"#i c #000000",
"#j c #000000",
"#k c #000000",
"#l c #000000",
"#m c #000000",
"#n c #000000",
"#o c #000000",
"#p c #000000",
"#q c #000000",
"#r c #000000",
"#s c #000000",
"#t c #000000",
"#u c #000000",
"#v c #000000",
"#w c #000000",
"#x c #000000",
"#y c #000000",
"#z c #000000",
"#A c #000000",
"#B c #000000",
"#C c #000000",
"#D c #000000",
"#E c #000000",
"#F c #000000",
"#G c #000000",
"#H c #000000",
"#I c #000000",
"#J c #000000",
"#K c #000000",
"#L c #000000",
"#M c #000000",
"#N c #000000",
"#O c #000000",
"#P c #000000",
"#Q c #000000",
"#R c #000000",
"#S c #000000",
"#T c #000000",
"#U c #000000",
"#V c #000000",
"#W c #000000",
"#X c #000000",
"#Y c #000000",
"#Z c #000000",
"#0 c #000000",
"#1 c #000000",
"#2 c #000000",
"#3 c #000000",
"#4 c #000000",
"#5 c #000000",
"#6 c #000000",
"#7 c #000000",
"#8 c #000000",
"a` c #000000",
"a. c #000000",
"a# c #000000",
"aa c #000000",
"ab c #000000",
"ac c #000000",
"ad c #000000",
"ae c #000000",
"af c #000000",
"ag c #000000",
"ah c #000000",
"ai c #000000",
"aj c #000000",
"ak c #000000",
"al c #000000",
"am c #000000",
"an c #000000",
"ao c #000000",
"ap c #000000",
"aq c #000000",
"ar c #000000",
"as c #000000",
"at c #000000",
"au c #000000",
"av c #000000",
"aw c #000000",
"ax c #000000",
"ay c #000000",
"az c #000000",
"aA c #000000",
"aB c #000000",
"aC c #000000",
"aD c #000000",
"aE c #000000",
"aF c #000000",
"aG c #000000",
"aH c #000000",
"aI c #000000",
"aJ c #000000",
"aK c #000000",
"aL c #000000",
"aM c #000000",
"aN c #000000",
"aO c #000000",
"aP c #000000",
"aQ c #000000",
"aR c #000000",
"aS c #000000",
"aT c #000000",
"aU c #000000",
"aV c #000000",
"aW c #000000",
"aX c #000000",
"aY c #000000",
"aZ c #000000",
"a0 c #000000",
"a1 c #000000",
"a2 c #000000",
"a3 c #000000",
"a4 c #000000",
"a5 c #000000",
"a6 c #000000",
"a7 c #000000",
"a8 c #000000",
/* pixels */
"````````````````````````````````````````````````````````````````",
"````````````````````````````````````````````````````````````````",
"`````````.`#`#`a`b`a`#`c`d`e`f`g`h`i`j`k`l`m`n`o`p`q`q`r````````",
"`````````c`s`s`t`u`t`s`s`s`s`v`v`v`w`w`w`u`u`u`x`x`x`y`z````````",
"`````````d`s`A`B`C`D`E`E`F`G`G`G`H`H`H`H`I`I`I`I`I`H`y`J````````",
"`````````K`t`B`L`C`M`F`F`G`G`H`H`I`I`I`N`N`N`N`N`N`I`y`J````````",
"`````````O`t`L`E`P`M`G`Q`R`R`R`R`S`S`S`S`S`S`S`T`D`N`y`U````````",
"`````````V`s`E`E`A`W`H`H`I`I`N`N`D`D`D`M`M`M`M`M`M`D`y`U````````",
"`````````X`s`E`F`B`Y`H`Z`S`S`S`S`Q`Q`Q`Q`Q`Q`Q`0`W`M`y`1````````",
"`````````2`s`F`G`L`Y`I`N`D`D`M`M`W`W`W`Y`Y`Y`Y`Y`Y`Y`y`3````````",
"`````````4`s`G`H`L`5`N`T`S`Q`Q`Q`Z`Z`Z`Z`Z`Z`Z`6`5`5`y`7````````",
"`````````8`s`G.``G..`D`M`M`W`Y`Y`5`5`5..............`y.#````````",
"````````.a`v`H`M`F..`M`0`Q`Z`Z`Z`T`T`T`T`T`T`T.b.c.c`y.d````````",
"`````````j`v`I`N`G..`M`W`Y`5`5...c.c.c.e.e.e.e.e.e.e`y.f````````",
"`````````k`v`I`N`G.c`W`6`Z`Z`T`T`T`T`T`0`0`0`0.g.h.h`y.i````````",
"````````.j`w`N`D`G.e`Y`5`5...c.e.e.h.h.k.k.k.k.k.k.k`y.l````````",
"````````.m`w`N`D`G.e`Y`6`T`T`T`0`0`0`0`6`6`6`6.n.o.o`y.p````````",
"````````.q`w`D`M`H.h`5...c.e.h.h.k.o.o.r.r.r.r.r.r.r.s.t````````",
"````````.u`w`D`M`H.h`5...c.e.h.k.o.r.r.v.v.v.v.v.v.r.s.w````````",
"````````.x`u`M`W`I.h...b`T`0`0`6`6`6.b.b.b.b.g.y.z.v.s.A````````",
"````````.B`u`M.C`D.h...c.e.h.k.o.r.v.z.D.D.E.E.D.D.z.s.A````````",
"`````````z`u`M..`I.h.c.g`0`0`6`6.b.b.g.g.g.g.g.F.E.D.s.A````````",
"`````````r`x`M`W`N.k.c.e.h.k.o.r.v.z.D.E.G.H.H.G.G.E.s.A````````",
"`````````J`x`M`Y`N.k.c.g`0`0`6.b.b.g.g.g.n.n.n.I.G.E.s.A````````",
"`````````7`x`W`Y`N.k.c.e.h.o.r.v.z.D.E.G.H.s`y.s.H.G.s.A````````",
"````````.J`y`W`Y`N.k.c.g`0`6`6.b.b.g.g.F.s`y`y.s.H.G.s.A````````",
"````````.K`y`M`Y`N.k.c.e.h.k.r.v.z.D.E.G.H.s.s.H.G.E.s.A````````",
"````````.L`y`M`Y`N.k.c.e.h.k.o.r.z.D.E.G.G.H.H.H.G.E.s.A````````",
"````````.M.s.H.H.D`y.s.s.s.s.s.s.s.s.s.s.s.s.s.s.s.s.s.M````````",
"````````.N.J.J.J.J.J.J.J.J.J.J.J.J.J.J.J.J.J.J.J.J.J.d.O````````",
"````````````````````````````````````````````````````````````````",
"````````````````````````````````````````````````````````````````"
};
