/* XPM */
static const char *folder32_xpm[] = {
/* width height num_colors chars_per_pixel */
"    32    32      256            2",
/* colors */
"`` c none",
"`. c #7a7a7a",
"`# c #767676",
"`a c #797979",
"`b c #808080",
"`c c #cecece",
"`d c #c3c3c3",
"`e c #c1c1c1",
"`f c #bfbfbf",
"`g c #bcbcbc",
"`h c #bababa",
"`i c #b9b9b9",
"`j c #b8b8b8",
"`k c #b7b7b7",
"`l c #898989",
"`m c #747474",
"`n c #787878",
"`o c #b2b2b2",
"`p c #989898",
"`q c #969696",
"`r c #929292",
"`s c #909090",
"`t c #8e8e8e",
"`u c #8c8c8c",
"`v c #8a8a8a",
"`w c #888888",
"`x c #939393",
"`y c #727272",
"`z c #c2c2c2",
"`A c #a7a7a7",
"`B c #a4a4a4",
"`C c #a1a1a1",
"`D c #9e9e9e",
"`E c #9b9b9b",
"`F c #959595",
"`G c #949494",
"`H c #737373",
"`I c #6f6f6f",
"`J c #707070",
"`K c #6e6e6e",
"`L c #717171",
"`M c #ababab",
"`N c #8d8d8d",
"`O c #878787",
"`P c #848484",
"`Q c #828282",
"`R c #7f7f7f",
"`S c #7d7d7d",
"`T c #919191",
"`U c #9f9f9f",
"`V c #a2a2a2",
"`W c #a6a6a6",
"`X c #aaaaaa",
"`Y c #a9a9a9",
"`Z c #6b6b6b",
"`0 c #9a9a9a",
"`1 c #8b8b8b",
"`2 c #868686",
"`3 c #676767",
"`4 c #6d6d6d",
"`5 c #a3a3a3",
"`6 c #858585",
"`7 c #818181",
"`8 c #7e7e7e",
".` c #7b7b7b",
".. c #777777",
".# c #626262",
".a c #696969",
".b c #adadad",
".c c #708298",
".d c #3465a4",
".e c #3566a5",
".f c #686868",
".g c #597191",
".h c #82a4cc",
".i c #bad0e7",
".j c #b7cee6",
".k c #b6cde6",
".l c #b6cce5",
".m c #3666a4",
".n c #636363",
".o c #56759b",
".p c #8dadd2",
".q c #96b7db",
".r c #7ea7d2",
".s c #81a9d3",
".t c #81a9d4",
".u c #89afd7",
".v c #a9c3df",
".w c #3868a6",
".x c #4a6d9a",
".y c #97b5d7",
".z c #91b3d9",
".A c #84abd5",
".B c #9dbada",
".C c #3968a7",
".D c #5f5f5f",
".E c #466ea0",
".F c #a2bddc",
".G c #8cb1d7",
".H c #78a3d0",
".I c #94b2d6",
".J c #3a6aa8",
".K c #5c5c5c",
".L c #3e69a1",
".M c #abc4e1",
".N c #86acd5",
".O c #719ece",
".P c #8aafd7",
".Q c #8babd1",
".R c #376aa7",
".S c #575757",
".T c #3968a3",
".U c #b4cbe5",
".V c #7da6d2",
".W c #77a2d0",
".X c #8fb3d8",
".Y c #81a3cc",
".Z c #3766a5",
".0 c #565656",
".1 c #727374",
".2 c #3968a4",
".3 c #b9cfe6",
".4 c #79a4d1",
".5 c #739fcf",
".6 c #95b6da",
".7 c #759ac6",
".8 c #3466a4",
"#` c #515151",
"#. c #797e83",
"## c #4472a9",
"#a c #acc7e2",
"#b c #7ca5d2",
"#c c #7aa4d1",
"#d c #76a1d0",
"#e c #729fce",
"#f c #698fc0",
"#g c #4e4e4e",
"#h c #757575",
"#i c #666f7a",
"#j c #5079ad",
"#k c #a1bfde",
"#l c #75a1cf",
"#m c #94b6da",
"#n c #5a84b7",
"#o c #3366a3",
"#p c #484848",
"#q c #6a7788",
"#r c #5780b3",
"#s c #97b8db",
"#t c #75a1d0",
"#u c #729ece",
"#v c #91b4d9",
"#w c #4b78b1",
"#x c #3565a3",
"#y c #464646",
"#z c #6a6a6a",
"#A c #5a6c82",
"#B c #5982b4",
"#C c #85acd5",
"#D c #4070ac",
"#E c #3665a1",
"#F c #424242",
"#G c #5d728e",
"#H c #5a85b9",
"#I c #7ca6d2",
"#J c #709ece",
"#K c #709dce",
"#L c #6f9dce",
"#M c #6e9cce",
"#N c #366ba1",
"#O c #414141",
"#P c #506b8c",
"#Q c #5887bc",
"#R c #719ecf",
"#S c #6b9acd",
"#T c #6a9acd",
"#U c #6a99cd",
"#V c #6999cd",
"#W c #6999cc",
"#X c #6a99cc",
"#Y c #76a2d1",
"#Z c #0000ff",
"#0 c #404040",
"#1 c #616161",
"#2 c #507098",
"#3 c #5586bd",
"#4 c #6899cd",
"#5 c #6798cc",
"#6 c #6698cc",
"#7 c #6697cc",
"#8 c #6697cb",
"a` c #6696cc",
"a. c #6597cc",
"a# c #6394ca",
"aa c #3b3b3b",
"ab c #5a5b5d",
"ac c #3d69a0",
"ad c #578ac2",
"ae c #6194cb",
"af c #5183bd",
"ag c #252525",
"ah c #395b88",
"ai c #3564a2",
"aj c #1d3a5e",
"ak c #000000",
"al c #000000",
"am c #000000",
"an c #000000",
"ao c #000000",
"ap c #000000",
"aq c #000000",
"ar c #000000",
"as c #000000",
"at c #000000",
"au c #000000",
"av c #000000",
"aw c #000000",
"ax c #000000",
"ay c #000000",
"az c #000000",
"aA c #000000",
"aB c #000000",
"aC c #000000",
"aD c #000000",
"aE c #000000",
"aF c #000000",
"aG c #000000",
"aH c #000000",
"aI c #000000",
"aJ c #000000",
"aK c #000000",
"aL c #000000",
"aM c #000000",
"aN c #000000",
"aO c #000000",
"aP c #000000",
"aQ c #000000",
"aR c #000000",
"aS c #000000",
"aT c #000000",
"aU c #000000",
"aV c #000000",
"aW c #000000",
"aX c #000000",
"aY c #000000",
"aZ c #000000",
"a0 c #000000",
"a1 c #000000",
"a2 c #000000",
"a3 c #000000",
"a4 c #000000",
"a5 c #000000",
"a6 c #000000",
"a7 c #000000",
"a8 c #000000",
/* pixels */
"````````````````````````````````````````````````````````````````",
"````````````````````````````````````````````````````````````````",
"````````````````````````````````````````````````````````````````",
"`````.`#`#`#`#`#`#`#`#`#`#`a`b``````````````````````````````````",
"`````#`c`d`e`f`g`h`i`j`k`k`l`m``````````````````````````````````",
"`````n`o`p`q`r`s`t`u`v`l`w`x`y``````````````````````````````````",
"`````m`z`A`B`C`D`E`p`q`F`x`G`H`I`J`J`I`I`I`I`K`K`L``````````````",
"`````H`M`s`N`l`O`P`Q`b`R`S`S`S`T`D`U`U`C`V`W`X`Y`Z``````````````",
"`````I`k`D`0`q`x`s`N`1`l`O`O`2`2`O`O`l`v`N`s`x`x`3``````````````",
"`````4`5`w`6`7`8.``a..`m`H`y`L`L`L`H`m`#`n`.`S`8.#``````````````",
"````.a.b`q.c.d.d.d.d.d.d.d.d.d.d.d.d.d.d.d.d.d.d.d.d.d.d.d.e````",
"````.f`0`7.g.h.i.i.i.i.i.i.i.i.i.i.i.i.i.i.i.i.i.j.k.k.j.l.m````",
"````.n`C`t.o.p.q.r.r.r.r.r.r.r.r.r.r.r.r.r.r.r.r.s.t.t.u.v.w````",
"````.#`r`..x.y.z.r.r.r.r.r.r.r.r.r.r.r.r.r.r.r.r.r.r.r.A.B.C````",
"````.D`F`w.E.F.G.r.r.r.r.r.r.r.r.r.r.r.r.r.r.r.r.r.r.H.A.I.J````",
"````.K`O...L.M.N.r.r.r.r.r.r.r.r.r.r.r.r.r.r.r.r.r.H.O.P.Q.R````",
"````.S`v`P.T.U.s.r.r.r.r.r.r.r.r.r.r.r.r.r.r.r.V.W.O.O.X.Y.Z````",
"````.0`R.1.2.3.r.r.r.r.r.r.r.r.r.r.r.r.r.r.V.4.5.O.O.O.6.7.8````",
"````#``8#.###a.r.r.r.r.r.r.r.V#b#c#c.4.H#d#e.O.O.O.O.O.q#f.d````",
"````#g#h#i#j#k.r.r.V#c.H#l#e.O.O.O.O.O.O.O.O.O.O.O.O.O#m#n#o````",
"````#p`H#q#r#s#c#t#u.O.O.O.O.O.O.O.O.O.O.O.O.O.O.O.O.O#v#w#x````",
"````#y#z#A#B#C.O.O.O.O.O.O.O.O.O.O.O.O.O.O.O.O.O.O.O.O.G#D#E````",
"````#F.f#G#H#I#J#K#K#K#K#L#L#L#L#L#L#L#L#L#M#M#M#M#M#M.A.C#N````",
"````#O.n#P#Q#R#S#S#S#T#T#T#T#T#T#T#U#U#V#V#V#V#V#W#W#X#Y.8#Z````",
"````#0#1#2#3#4#5#5#6#6#6#7#7#7#7#8#7#7#7#7#7#7#7#7a`a.a#.Z``````",
"````aaabacadaeaeaeaeaeaeaeaeaeaeaeaeaeaeaeaeaeaeaeaeaeaf#E``````",
"````agah.d.d.d.d.d.d.d.d.d.d.d.d.d.d.d.d.d.d.d.d.d.d.daiaj``````",
"````````````````````````````````````````````````````````````````",
"````````````````````````````````````````````````````````````````",
"````````````````````````````````````````````````````````````````",
"````````````````````````````````````````````````````````````````",
"````````````````````````````````````````````````````````````````"
};
